# WaveFront *.obj file (generated by Autodesk ATF)

mtllib ff57830c-614e-4599-a82b-eabedd4705d0.mtl

g Body4

v 40.000000 0.000000 -1.500000
v 40.000000 0.000000 1.500000
v -40.000000 0.000000 1.500000
v -40.000000 0.000000 -1.500000
v 50.000000 0.000000 11.500000
v 50.000000 0.000000 -11.500000
v -50.000000 0.000000 -11.500000
v -50.000000 0.000000 11.500000
v 40.000000 -10.000000 -1.500000
v 40.000000 -10.000000 1.500000
v -40.000000 -10.000000 -1.500000
v -40.000000 -10.000000 1.500000
vt 4.000000 -0.150000 0.000000
vt 5.000000 -1.150000 0.000000
vt 4.000000 0.150000 0.000000
vt 5.000000 1.150000 0.000000
vt -5.000000 1.150000 0.000000
vt -4.000000 -0.150000 0.000000
vt -5.000000 -1.150000 0.000000
vt -4.000000 0.150000 0.000000
vt -0.300000 0.000000 0.000000
vt -0.000000 0.000000 0.000000
vt -0.300000 1.000000 0.000000
vt -0.000000 1.000000 0.000000
vt -8.000000 0.000000 0.000000
vt -0.000000 0.000000 0.000000
vt -8.000000 1.000000 0.000000
vt -0.000000 1.000000 0.000000
vt -0.300000 0.000000 0.000000
vt 0.000000 0.000000 0.000000
vt -0.300000 1.000000 0.000000
vt -0.000000 1.000000 0.000000
vt -8.000000 -0.000000 0.000000
vt 0.000000 0.000000 0.000000
vt -8.000000 1.000000 0.000000
vt -0.000000 1.000000 0.000000
vt -0.150000 -4.000000 0.000000
vt 0.150000 -4.000000 0.000000
vt -0.150000 4.000000 0.000000
vt 0.150000 4.000000 0.000000
vn 0.000000 0.100000 0.000000
vn 0.000000 0.100000 0.000000
vn 0.000000 0.100000 0.000000
vn 0.000000 0.100000 0.000000
vn 0.000000 0.100000 0.000000
vn 0.000000 0.100000 0.000000
vn 0.000000 0.100000 0.000000
vn 0.000000 0.100000 0.000000
vn -0.100000 0.000000 0.000000
vn -0.100000 0.000000 0.000000
vn -0.100000 0.000000 0.000000
vn -0.100000 0.000000 0.000000
vn -0.000000 0.000000 0.100000
vn -0.000000 0.000000 0.100000
vn -0.000000 0.000000 0.100000
vn -0.000000 0.000000 0.100000
vn 0.100000 0.000000 0.000000
vn 0.100000 0.000000 0.000000
vn 0.100000 0.000000 0.000000
vn 0.100000 0.000000 0.000000
vn 0.000000 0.000000 -0.100000
vn 0.000000 0.000000 -0.100000
vn 0.000000 0.000000 -0.100000
vn 0.000000 0.000000 -0.100000
vn 0.000000 0.100000 0.000000
vn 0.000000 0.100000 0.000000
vn 0.000000 0.100000 0.000000
vn 0.000000 0.100000 0.000000
usemtl Steel_-_Satin
f 2/1/1 5/2/2 1/3/3
f 1/3/3 5/2/2 6/4/4
f 1/3/3 6/4/4 7/5/5
f 2/1/1 3/6/6 5/2/2
f 5/2/2 3/6/6 8/7/7
f 8/7/7 3/6/6 4/8/8
f 8/7/7 4/8/8 7/5/5
f 7/5/5 4/8/8 1/3/3
f 2/9/9 1/10/10 10/11/11
f 10/11/11 1/10/10 9/12/12
f 1/13/13 4/14/14 9/15/15
f 9/15/15 4/14/14 11/16/16
f 4/17/17 3/18/18 11/19/19
f 11/19/19 3/18/18 12/20/20
f 3/21/21 2/22/22 12/23/23
f 12/23/23 2/22/22 10/24/24
f 11/25/25 12/26/26 9/27/27
f 9/27/27 12/26/26 10/28/28
# 12 vertices
# 28 texture params
# 28 normals
# 18 facets

# 1 groups
